<svg width="196" height="196" viewBox="0 0 196 196" fill="none" xmlns="http://www.w3.org/2000/svg">
<g clip-path="url(#clip0_3_15)">
<path d="M37.6674 28.2559V23.7115C37.3318 23.5628 37.0963 23.2293 37.0963 22.8388V21.0527C37.0963 20.5247 37.5244 20.0964 38.0523 20.0964C38.5806 20.0964 39.0082 20.5247 39.0082 21.0527V22.8388C39.0082 23.2293 38.7728 23.5628 38.4372 23.7115V29.2025C39.3819 30.4453 40.1955 31.8096 40.8475 33.2841C41.007 33.6453 41.1415 34.0164 41.2797 34.3861V20.5194C40.9444 20.3711 40.7086 20.0376 40.7086 19.647V17.8605C40.7086 17.3325 41.1366 16.9043 41.6649 16.9043C42.1928 16.9043 42.6208 17.3325 42.6208 17.8605V19.647C42.6208 20.0376 42.3851 20.3711 42.0494 20.5197V34.385C42.1876 34.0156 42.3213 33.6449 42.4808 33.2841C43.1335 31.8092 43.9472 30.4445 44.8919 29.2022V24.1363C44.5566 23.9881 44.3208 23.6545 44.3208 23.264V21.4779C44.3208 20.9495 44.7488 20.5213 45.2768 20.5213C45.8051 20.5213 46.2331 20.9495 46.2331 21.4779V23.264C46.2331 23.6549 45.9973 23.9884 45.6613 24.1367V28.2556C47.0959 26.5865 48.7791 25.1712 50.634 24.0473C49.652 18.1904 46.463 12.8435 41.6638 9.1875C36.8649 12.8432 33.6763 18.1896 32.695 24.0473C34.55 25.1712 36.2335 26.5865 37.6674 28.2559Z" fill="#3764E5"/>
<path d="M21.8694 31.7108C22.1663 31.6496 22.4472 31.5971 22.7176 31.555C23.1998 31.4793 23.6822 31.4264 24.1647 31.3854C24.3028 31.3739 24.4411 31.3668 24.5793 31.3579C24.9407 31.3348 25.3016 31.3202 25.6623 31.3161C25.7424 31.3154 25.8233 31.3068 25.9029 31.3068C25.9853 31.3068 26.0673 31.3116 26.15 31.3128C26.3053 31.3147 26.4603 31.3183 26.6156 31.324C26.8347 31.3314 27.0534 31.3433 27.2713 31.3579C27.4263 31.3683 27.5806 31.3773 27.7352 31.391C27.9814 31.413 28.2266 31.4421 28.4717 31.4726C28.6021 31.4891 28.7328 31.502 28.8628 31.5207C29.1963 31.5691 29.5282 31.6262 29.8584 31.6906C30.01 31.7201 30.1593 31.7551 30.3099 31.7879C30.4652 31.8218 30.6213 31.8527 30.7759 31.89C30.8285 31.9027 30.8799 31.9183 30.9324 31.9318C31.0922 31.9716 31.2509 32.0145 31.4093 32.0584C31.5352 32.0931 31.6614 32.1266 31.7866 32.1635C31.86 32.1851 31.9324 32.2104 32.0057 32.2328C32.1592 32.2801 32.3124 32.3271 32.4647 32.3778C32.5913 32.4203 32.7169 32.465 32.8425 32.5097C32.9364 32.5429 33.0291 32.5783 33.1222 32.6129C33.2459 32.6588 33.3711 32.7016 33.494 32.7501C33.8204 32.8786 34.1434 33.0157 34.4631 33.1607C34.58 33.2136 34.694 33.2721 34.8103 33.3273C35.0271 33.4305 35.2432 33.536 35.457 33.647C35.5878 33.7152 35.7171 33.786 35.8464 33.8572C36.0464 33.9664 36.2442 34.0793 36.441 34.1956C36.5646 34.269 36.6883 34.3421 36.8101 34.4181C37.0266 34.5522 37.2397 34.6923 37.4513 34.8347C37.5455 34.8983 37.642 34.9595 37.7352 35.0247C38.0351 35.2337 38.3301 35.4506 38.6189 35.6764C38.6814 35.7253 38.7406 35.7775 38.8029 35.827C39.0324 36.0108 39.2589 36.1986 39.481 36.3931C39.5766 36.4765 39.6698 36.5623 39.7633 36.6476C39.8695 36.7441 39.9783 36.8369 40.0823 36.9357C39.8297 35.95 39.4977 34.99 39.0879 34.0629C37.6301 30.7664 35.2808 28.086 32.4405 26.1766C32.1402 25.9745 31.8373 25.7774 31.5262 25.593C31.2241 25.4145 30.9205 25.2397 30.6094 25.0783C26.8466 23.1241 22.4408 22.431 18.1186 23.3575L21.8172 31.7204C21.8355 31.7163 21.8511 31.7144 21.8694 31.7108Z" fill="#3764E5"/>
<path d="M44.2409 34.0629C43.8303 34.9908 43.4984 35.9507 43.2458 36.9364C43.3348 36.8518 43.4291 36.7744 43.5196 36.6916C43.6544 36.5686 43.7901 36.4464 43.928 36.3272C44.093 36.1841 44.2607 36.0454 44.4297 35.9083C44.5721 35.7931 44.7144 35.6788 44.8589 35.5677C45.03 35.4365 45.204 35.3098 45.3787 35.1843C45.5284 35.0769 45.6778 34.97 45.8302 34.8668C46.0071 34.7468 46.1867 34.632 46.367 34.518C46.5228 34.4196 46.6781 34.3208 46.8361 34.2269C47.0182 34.1181 47.2034 34.0149 47.3886 33.9124C47.5506 33.8226 47.7123 33.732 47.8762 33.6467C48.0633 33.5498 48.2525 33.4585 48.4417 33.3672C48.609 33.2867 48.7755 33.2055 48.945 33.1295C49.1373 33.0434 49.3314 32.9632 49.5262 32.8831C49.6976 32.8127 49.8679 32.7404 50.0407 32.6744C50.1882 32.6182 50.3369 32.5664 50.486 32.5134C50.5351 32.4959 50.585 32.4799 50.6346 32.4627C50.8096 32.4017 50.984 32.339 51.1606 32.2832C51.2873 32.2429 51.4147 32.2064 51.5417 32.1688C51.6159 32.1468 51.6908 32.1274 51.7649 32.1062C51.9441 32.0554 52.1218 32.0021 52.3017 31.9564C52.3852 31.9347 52.469 31.9146 52.5528 31.8941C52.6739 31.865 52.7965 31.8408 52.9183 31.814C53.0986 31.7737 53.2782 31.7305 53.4596 31.6951C53.6697 31.6538 53.8809 31.6217 54.0922 31.5871C54.2721 31.5576 54.4514 31.5248 54.6316 31.5002C54.8481 31.4704 55.0653 31.4503 55.2825 31.4275C55.4606 31.4089 55.6379 31.3862 55.8163 31.3724C56.0395 31.3549 56.2638 31.3478 56.4873 31.3374C56.6616 31.3296 56.8353 31.3165 57.01 31.3131C57.244 31.3083 57.4783 31.3146 57.7122 31.3176C57.8781 31.3198 58.0435 31.3165 58.2093 31.3229C58.4689 31.3325 58.7289 31.3545 58.9886 31.3743C59.1294 31.3847 59.2699 31.3895 59.4107 31.4029C59.8112 31.4417 60.2113 31.4916 60.6114 31.5542C60.8831 31.5967 61.1643 31.6497 61.4616 31.7111C61.4795 31.7149 61.494 31.7168 61.5119 31.7204L65.211 23.3575C63.9313 23.0836 62.6422 22.9505 61.3652 22.9505C58.3326 22.9505 55.3686 23.7074 52.7205 25.0828C52.4094 25.2445 52.1047 25.416 51.8033 25.5945C51.4929 25.7782 51.1874 25.969 50.8879 26.1702C48.0465 28.0797 45.6994 30.7657 44.2409 34.0629Z" fill="#3764E5"/>
<path d="M48.0432 47.2674C44.9104 50.4003 42.991 54.5546 42.6378 58.966L42.6323 61.2657L62.0723 41.8201C56.8794 41.5924 51.759 43.5499 48.0432 47.2674Z" fill="#3764E5"/>
<path d="M36.6461 45.9067C38.9715 48.2313 40.6726 51.0731 41.6676 54.1624C42.6646 51.0597 44.3634 48.2256 46.6829 45.9067C51.1836 41.4039 57.5458 39.2507 63.8426 40.0494L67.6336 36.2573C65.8807 35.1117 63.9394 34.2763 61.846 33.7691C61.2585 33.6275 60.7713 33.5277 60.3131 33.4553C60.0213 33.4099 59.7288 33.3767 59.4367 33.345C56.9571 33.0771 54.4736 33.3134 52.1273 34.0035C51.7629 34.1104 51.402 34.2286 51.0447 34.3575C50.6587 34.4969 50.2773 34.6478 49.9009 34.8125C47.8032 35.7297 45.8667 37.0268 44.2155 38.678C43.6619 39.2318 43.1254 39.8563 42.5789 40.5774C42.5603 40.6012 42.5428 40.6206 42.5241 40.6449L42.4529 40.735L41.6673 41.6897L40.8029 40.6426C40.7854 40.6191 40.7683 40.6002 40.7504 40.5771C40.6107 40.3929 40.4721 40.229 40.3335 40.0572C39.9282 39.5567 39.5255 39.089 39.1142 38.678C37.463 37.0268 35.5257 35.7288 33.4272 34.8114C33.0513 34.6467 32.6702 34.4958 32.2842 34.3564C31.9269 34.2275 31.5656 34.1093 31.2012 34.002C28.5784 33.2306 25.7832 33.0215 23.0159 33.4561C22.5588 33.5277 22.0719 33.6275 21.4825 33.7691C19.3903 34.2755 17.4481 35.1117 15.6953 36.2573L19.4867 40.0498C25.7839 39.2552 32.1471 41.4047 36.6461 45.9067Z" fill="#3764E5"/>
<path d="M21.2567 41.8201L40.6957 61.2642L40.6882 58.8923C40.3377 54.5546 38.4183 50.4 35.2855 47.2675C31.569 43.5499 26.4516 41.5921 21.2567 41.8201Z" fill="#3764E5"/>
<path d="M164.936 56.4765H164.934L165.877 56.4654C165.927 56.4646 165.975 56.4571 166.024 56.4561L164.936 56.4765Z" fill="#3764E5"/>
<path d="M160.022 71.9315L159.82 71.9353L159.99 71.9334C160.001 71.9334 160.012 71.9315 160.022 71.9315Z" fill="#3764E5"/>
<path d="M150.648 87.4281L149.44 87.4571L150.247 87.4475C150.381 87.4456 150.514 87.4318 150.648 87.4281Z" fill="#3764E5"/>
<path d="M58.6327 78.0923C57.236 78.1087 56.0897 76.9896 56.0733 75.5922C56.0566 74.1948 57.1753 73.0485 58.5727 73.0317C59.9695 73.0153 61.1158 74.1344 61.1322 75.5318C61.1486 76.9293 60.0298 78.0755 58.6327 78.0923ZM120.917 57.3014H120.899C120.631 57.3014 120.39 57.1882 120.214 57.0093C120.049 56.8405 119.943 56.6124 119.938 56.3571C119.927 55.8254 120.35 55.3864 120.881 55.3767L173.063 54.3989C177.216 51.8779 179.978 47.304 179.921 42.0932L179.919 41.9461L103.675 42.8549C96.8646 42.9358 91.4086 48.5248 91.4898 55.3372L91.7186 74.5413C91.7535 77.5117 88.2594 79.123 86.0237 77.1682C83.0799 75.0575 80.3141 72.709 77.8038 70.0974C77.1757 69.4454 76.365 68.797 75.5204 68.0512C57.2398 51.9166 47.074 67.2657 43.0467 75.8139C42.8474 73.3864 42.7181 71.1755 42.701 69.4002L42.6317 62.6266L41.7239 63.5347H41.6646L41.7239 63.5351L41.6646 63.594L40.7075 62.6371L40.7768 69.4215C40.8021 72.0039 41.0763 75.6216 41.4646 79.5259C41.2187 80.1598 41.0689 80.5681 41.0134 80.6598C40.3566 81.745 38.4767 84.1079 33.4048 89.2516C36.7637 89.1376 39.8555 89.0076 42.536 88.9715C43.4442 96.2489 44.3842 102.478 44.4829 102.798C45.5786 106.347 46.9567 109.755 48.5791 113.01C44.6476 109.645 39.7914 107.409 34.5601 106.69C34.2061 103.58 31.57 101.164 28.3671 101.164H18.8429C18.8429 104.609 21.6352 107.402 25.0797 107.402H34.0344C39.9937 108.122 45.4795 110.865 49.6319 115.035C51.3625 118.23 53.3403 121.258 55.5376 124.101C55.5693 124.182 55.608 124.26 55.639 124.342L55.7045 124.317C65.5819 136.992 79.8528 145.923 96.2331 149.046C100.45 149.85 104.248 151.806 107.216 154.706L118.26 165.492C114.953 163.806 111.32 162.816 107.553 162.594C107.175 159.512 104.553 157.124 101.368 157.124H93.8719C93.8719 160.569 96.6641 163.362 100.108 163.362H107.496C112.193 163.636 116.676 165.146 120.549 167.729L139.807 186.539C139.995 186.721 140.236 186.813 140.48 186.813C140.73 186.813 140.979 186.716 141.168 186.522C141.539 186.142 141.531 185.533 141.151 185.162L108.56 153.329C105.321 150.164 101.183 148.03 96.5938 147.156C72.739 142.608 53.4755 125.394 46.3408 102.304C46.2566 101.885 45.3547 95.966 44.4695 88.9662C49.1856 89.0012 52.2599 89.4819 52.6243 91.1946C52.8541 92.2768 53.0531 93.3668 53.3787 94.424C60.7272 118.286 80.7488 135.57 104.455 140.07C108.761 140.888 112.744 142.915 115.879 145.978L148.471 177.811C153.064 173.106 154.019 166.215 151.409 160.584L135.733 145.198C135.354 144.826 135.347 144.216 135.719 143.837C136.092 143.457 136.701 143.452 137.08 143.823L152.547 159.003C158.291 161.642 165.307 160.565 169.976 155.782L138.895 125.426C132.294 118.457 127.107 113.115 127.107 113.115L127.079 113.091C142.306 108.708 155.469 99.5088 164.852 87.2732L121.148 88.1311H121.125C120.841 88.1311 120.592 88.0006 120.416 87.8028C120.268 87.6384 120.169 87.4294 120.163 87.1912C120.151 86.6606 120.571 86.2194 121.102 86.2067L160.42 85.2695C166.337 82.7168 171.236 78.0498 173.894 71.9335C173.918 71.878 173.942 71.8225 173.966 71.7669L120.924 72.6665H120.906C120.655 72.6665 120.428 72.5659 120.255 72.4068C120.07 72.2353 119.95 71.995 119.944 71.7222C119.934 71.1908 120.357 70.7526 120.889 70.7422L168.482 69.8474C173.631 67.2504 177.514 62.4257 178.638 56.4741C178.649 56.4205 178.659 56.3668 178.668 56.3131L165.877 56.4654L120.917 57.3014Z" fill="#3764E5"/>
<path d="M41.6054 63.5349H41.6643L41.605 63.5345L41.6054 63.5349Z" fill="#3764E5"/>
</g>
<defs>
<clipPath id="clip0_3_15">
<rect width="196" height="196" fill="white"/>
</clipPath>
</defs>
</svg>
